<svg xmlns="http://www.w3.org/2000/svg" width="171.117" height="57" viewBox="0 0 171.117 57">
  <path id="Exclusion_1" data-name="Exclusion 1" d="M81.174,57H12A12,12,0,0,1,0,45V12A12,12,0,0,1,12,0H81.174a12,12,0,0,1,12,12V45a12,12,0,0,1-12,12Zm-12.7-32.024A4.463,4.463,0,0,0,65,26.587a5.946,5.946,0,0,0-1.416,4.053A5.829,5.829,0,0,0,65,34.839,4.889,4.889,0,0,0,68.666,36.3a3.778,3.778,0,0,0,2.784-1.026,4.837,4.837,0,0,0,1.319-2.1l-.489-.2a4.187,4.187,0,0,1-1.269,1.806,3.261,3.261,0,0,1-2.149.733A3.478,3.478,0,0,1,66.177,34.4a5.551,5.551,0,0,1-1.026-3.76h7.91c0-2.073-.46-3.552-1.367-4.394A4.6,4.6,0,0,0,68.471,24.976Zm-41.4,0A4.463,4.463,0,0,0,23.6,26.587a5.946,5.946,0,0,0-1.416,4.053,5.829,5.829,0,0,0,1.416,4.2A4.889,4.889,0,0,0,27.266,36.3a3.778,3.778,0,0,0,2.784-1.026,4.837,4.837,0,0,0,1.319-2.1l-.489-.2a4.187,4.187,0,0,1-1.269,1.806,3.261,3.261,0,0,1-2.149.733A3.478,3.478,0,0,1,24.777,34.4a5.551,5.551,0,0,1-1.026-3.76h7.91c0-2.073-.46-3.552-1.367-4.394A4.6,4.6,0,0,0,27.071,24.976Zm27.21.1a4.231,4.231,0,0,0-3.223,1.514,5.848,5.848,0,0,0-1.367,4.053,6.056,6.056,0,0,0,1.27,4.151,3.949,3.949,0,0,0,3.028,1.416,3.437,3.437,0,0,0,1.9-.537,3.937,3.937,0,0,0,1.319-1.416v1.856h.2a6.2,6.2,0,0,1,1.123-.44,3.641,3.641,0,0,1,.928-.146h.586v-.586h-.684a.8.8,0,0,1-.586-.2.961.961,0,0,1-.2-.684V18.628a3.907,3.907,0,0,1-.976.586,2.614,2.614,0,0,1-.977.2H55.551V20h.781a.762.762,0,0,1,.683.293,1.6,1.6,0,0,1,.2.878v5.274a2.971,2.971,0,0,0-1.319-1.026A4.235,4.235,0,0,0,54.281,25.073Zm-13.7.489c1.037,0,1.71.213,2,.635a2.783,2.783,0,0,1,.439,1.612V28.98c-2.98.323-5,.865-6.006,1.611A3.456,3.456,0,0,0,35.5,33.472a2.464,2.464,0,0,0,.976,1.9,4.113,4.113,0,0,0,2.734.83,5.267,5.267,0,0,0,2-.342,9.578,9.578,0,0,0,1.806-1.025,1.8,1.8,0,0,0,.586.977,1.761,1.761,0,0,0,1.075.293,1.643,1.643,0,0,0,1.269-.537,2.862,2.862,0,0,0,.489-1.9H45.95a3.088,3.088,0,0,1-.2,1.22.694.694,0,0,1-.683.44.761.761,0,0,1-.537-.147,1.668,1.668,0,0,1-.147-.928V27.808a2.476,2.476,0,0,0-.977-2.1,4.875,4.875,0,0,0-2.93-.733,5.88,5.88,0,0,0-3.125.781c-.843.518-1.27,1.077-1.27,1.66a1,1,0,0,0,.244.732.863.863,0,0,0,.635.245c.389,0,.635-.1.732-.293a1.151,1.151,0,0,0,.147-.488.87.87,0,0,0-.1-.391c-.13-.389.034-.767.488-1.123A3.9,3.9,0,0,1,40.578,25.562Zm36.029,9.961v.586h7.227v-.586H81.686a.994.994,0,0,1-.635-.2.711.711,0,0,1-.244-.586V29.468a8.792,8.792,0,0,1,2-2.734,3.22,3.22,0,0,1,1.9-.976c.324,0,.522.066.587.2a1.1,1.1,0,0,1,.1.489.939.939,0,0,0,1.611.781,1.186,1.186,0,0,0,.245-.781,1.3,1.3,0,0,0-.537-1.026,2.343,2.343,0,0,0-1.514-.439,3.843,3.843,0,0,0-2.295.83,8.619,8.619,0,0,0-2.1,2.393V24.682h-.293a6.9,6.9,0,0,1-1.417.342,10.511,10.511,0,0,1-1.611.147h-.781v.586h1.856a.834.834,0,0,1,.683.244.99.99,0,0,1,.2.635v8.105a.8.8,0,0,1-.2.586.96.96,0,0,1-.683.2Zm-69,0v.586H17.666l.879-3.809-.489-.2a5.1,5.1,0,0,1-1.465,2.588,3.513,3.513,0,0,1-2.344.831H11.612a.994.994,0,0,1-.635-.2.709.709,0,0,1-.244-.586V20.776a.709.709,0,0,1,.244-.586.99.99,0,0,1,.635-.2h.683v-.586H7.7V20h.586a.958.958,0,0,1,.684.2.8.8,0,0,1,.2.586V34.742a.8.8,0,0,1-.2.586.961.961,0,0,1-.684.2Zm31.8,0A1.987,1.987,0,0,1,37.7,34.79a2.676,2.676,0,0,1-.536-1.611,2.771,2.771,0,0,1,1.269-2.3,10.337,10.337,0,0,1,4.59-1.319v4.59a8.954,8.954,0,0,1-1.856,1.025A4.844,4.844,0,0,1,39.407,35.523Zm14.874-.1A2.581,2.581,0,0,1,52.034,34.3a6.169,6.169,0,0,1-.781-3.467,6.93,6.93,0,0,1,.831-3.613,2.575,2.575,0,0,1,2.3-1.367,4.1,4.1,0,0,1,1.562.32,2.692,2.692,0,0,1,1.269,1.106v5.4a4.427,4.427,0,0,1-1.123,2.06A2.549,2.549,0,0,1,54.281,35.425Zm103.3-.073a3.716,3.716,0,0,1-2.783-1.113,4.429,4.429,0,0,1-1.076-3.191,4.517,4.517,0,0,1,1.076-3.081,3.39,3.39,0,0,1,2.634-1.224,3.5,3.5,0,0,1,2.45.965,4.444,4.444,0,0,1,1.039,3.34h-6.011a4.219,4.219,0,0,0,.778,2.857,2.645,2.645,0,0,0,2.041.854,2.471,2.471,0,0,0,1.633-.557,3.179,3.179,0,0,0,.966-1.373l.371.149a3.684,3.684,0,0,1-1,1.6A2.874,2.874,0,0,1,157.586,35.352Zm-.149-8.09a2.225,2.225,0,0,0-1.818.89,3.868,3.868,0,0,0-.7,2.45h4.749a3.858,3.858,0,0,0-.556-2.487A1.986,1.986,0,0,0,157.437,27.262Zm-52.366,8.09a3.689,3.689,0,0,1-2.821-1.113,4.53,4.53,0,0,1-1.039-3.191,4.424,4.424,0,0,1,1.113-3.081,3.747,3.747,0,0,1,2.894-1.224,2.756,2.756,0,0,1,1.967.668,1.9,1.9,0,0,1,.706,1.336.878.878,0,0,1-.185.631.76.76,0,0,1-.557.185.647.647,0,0,1-.482-.185.655.655,0,0,1-.185-.482.433.433,0,0,1,.074-.3,1.216,1.216,0,0,1,.075-.3.822.822,0,0,0-.3-.7,1.652,1.652,0,0,0-1.262-.409,2.3,2.3,0,0,0-1.893,1.076,4.79,4.79,0,0,0-.779,2.858,4.7,4.7,0,0,0,.669,2.635,2.485,2.485,0,0,0,2.227,1,2.45,2.45,0,0,0,1.743-.668,3.773,3.773,0,0,0,1-1.559l.371.149a4.006,4.006,0,0,1-1.113,1.893A3.107,3.107,0,0,1,105.071,35.352Zm59.735-.074h0l-.221-2.745.445-.075A2.863,2.863,0,0,0,166,34.239a3.263,3.263,0,0,0,2.078.593,2.887,2.887,0,0,0,1.6-.371,1.254,1.254,0,0,0,.556-1.113,1.24,1.24,0,0,0-.3-.853,2.05,2.05,0,0,0-.593-.482c-.482-.193-1.016-.411-1.633-.669-.6-.2-1.123-.4-1.558-.593a2.194,2.194,0,0,1-.966-.743,1.719,1.719,0,0,1-.3-.965,1.962,1.962,0,0,1,.853-1.707,3.5,3.5,0,0,1,2.041-.593,5.256,5.256,0,0,1,1.262.148,2.9,2.9,0,0,0,.816.223.828.828,0,0,0,.371-.075,1.593,1.593,0,0,0,.371-.3l.3,2.449-.445.074a3.012,3.012,0,0,0-1-1.521,2.515,2.515,0,0,0-1.6-.557,2.723,2.723,0,0,0-1.521.372,1.184,1.184,0,0,0-.557,1.039,1.48,1.48,0,0,0,.26.928,1.575,1.575,0,0,0,.928.482,10.452,10.452,0,0,0,1.336.446c.49.2.964.4,1.41.594a3.123,3.123,0,0,1,1,.778,1.636,1.636,0,0,1,.409,1.076,2.129,2.129,0,0,1-.779,1.744,3.542,3.542,0,0,1-2.263.631,3.349,3.349,0,0,1-1.41-.222,3.2,3.2,0,0,0-.816-.148,1.24,1.24,0,0,0-.482.111c-.175.075-.362.163-.557.26Zm-20.976,0h0l-.221-2.745.445-.075a2.868,2.868,0,0,0,.965,1.782,3.266,3.266,0,0,0,2.078.593,2.883,2.883,0,0,0,1.6-.371,1.386,1.386,0,0,0,.26-1.967,2.041,2.041,0,0,0-.594-.482c-.483-.193-1.032-.418-1.633-.669-.6-.2-1.12-.4-1.559-.593a2.193,2.193,0,0,1-.965-.743,1.713,1.713,0,0,1-.3-.965,1.962,1.962,0,0,1,.853-1.707,3.5,3.5,0,0,1,2.041-.593,5.256,5.256,0,0,1,1.262.148,2.867,2.867,0,0,0,.816.223.828.828,0,0,0,.371-.075,1.615,1.615,0,0,0,.372-.3l.3,2.449-.446.074a3.016,3.016,0,0,0-1-1.521,2.518,2.518,0,0,0-1.6-.557,2.725,2.725,0,0,0-1.522.372A1.185,1.185,0,0,0,144.8,28.6a1.485,1.485,0,0,0,.259.928,1.579,1.579,0,0,0,.928.482,10.55,10.55,0,0,0,1.336.446c.49.2.964.4,1.41.594a3.123,3.123,0,0,1,1,.778,1.632,1.632,0,0,1,.409,1.076,2.129,2.129,0,0,1-.779,1.744,3.541,3.541,0,0,1-2.263.631,3.349,3.349,0,0,1-1.41-.222,3.2,3.2,0,0,0-.816-.148,1.24,1.24,0,0,0-.482.111c-.18.078-.368.165-.557.26Zm-10.488,0h0l-.221-2.745.446-.075a2.862,2.862,0,0,0,.965,1.782,3.263,3.263,0,0,0,2.078.593,2.888,2.888,0,0,0,1.6-.371,1.254,1.254,0,0,0,.556-1.113,1.24,1.24,0,0,0-.3-.853,2.049,2.049,0,0,0-.593-.482c-.482-.193-1.016-.411-1.633-.669-.6-.2-1.124-.4-1.558-.593a2.195,2.195,0,0,1-.966-.743,1.719,1.719,0,0,1-.3-.965,1.962,1.962,0,0,1,.853-1.707,3.5,3.5,0,0,1,2.041-.593,5.256,5.256,0,0,1,1.262.148,2.9,2.9,0,0,0,.816.223.828.828,0,0,0,.371-.075,1.592,1.592,0,0,0,.371-.3l.3,2.449-.445.074a3.012,3.012,0,0,0-1-1.521,2.515,2.515,0,0,0-1.6-.557,2.723,2.723,0,0,0-1.521.372,1.184,1.184,0,0,0-.557,1.039,1.48,1.48,0,0,0,.26.928,1.574,1.574,0,0,0,.928.482,10.45,10.45,0,0,0,1.336.446c.49.2.964.4,1.41.594a3.122,3.122,0,0,1,1,.778,1.632,1.632,0,0,1,.409,1.076,2.129,2.129,0,0,1-.779,1.744,3.541,3.541,0,0,1-2.264.631,3.349,3.349,0,0,1-1.41-.222,3.2,3.2,0,0,0-.816-.148,1.24,1.24,0,0,0-.482.111c-.175.075-.362.163-.557.26Zm-8.631,0a3.129,3.129,0,0,1-2.078-.631,1.872,1.872,0,0,1-.742-1.447,2.628,2.628,0,0,1,1.15-2.19,10.308,10.308,0,0,1,4.565-1.224v-.891a2.118,2.118,0,0,0-.334-1.225c-.222-.32-.734-.482-1.522-.482a2.963,2.963,0,0,0-1.781.409c-.344.27-.469.557-.372.853a.663.663,0,0,1,.075.3.873.873,0,0,1-.112.371c-.074.148-.261.223-.556.223a.655.655,0,0,1-.482-.185.76.76,0,0,1-.185-.557c0-.443.325-.868.965-1.262a4.466,4.466,0,0,1,2.374-.593,3.708,3.708,0,0,1,2.227.556,1.881,1.881,0,0,1,.743,1.6v4.9a1.262,1.262,0,0,0,.112.7.574.574,0,0,0,.408.112.528.528,0,0,0,.52-.334,2.355,2.355,0,0,0,.148-.928h.371a2.178,2.178,0,0,1-.371,1.447,1.25,1.25,0,0,1-.965.409,1.34,1.34,0,0,1-.817-.223,1.367,1.367,0,0,1-.445-.742,7.342,7.342,0,0,1-1.373.778A4,4,0,0,1,124.711,35.277Zm2.9-5.047h0a7.85,7.85,0,0,0-3.488,1,2.1,2.1,0,0,0-.965,1.744,2.033,2.033,0,0,0,.408,1.224,1.509,1.509,0,0,0,1.3.557,3.672,3.672,0,0,0,1.337-.26,6.791,6.791,0,0,0,1.41-.779V30.23ZM118.231,35.2h-5.789v-.446h1.707a.727.727,0,0,0,.519-.148.608.608,0,0,0,.149-.445V23.551a.608.608,0,0,0-.149-.445.727.727,0,0,0-.519-.149h-1.633v-.445h.817a5.2,5.2,0,0,0,1.261-.149,4.371,4.371,0,0,0,1.113-.445h.149V34.164a.538.538,0,0,0,.186.445.75.75,0,0,0,.482.148h1.706V35.2ZM71.4,30.054H65.151a5.084,5.084,0,0,1,.928-3.222,2.926,2.926,0,0,1,2.392-1.172,2.613,2.613,0,0,1,2.2,1.122,5.075,5.075,0,0,1,.733,3.271Zm-41.4,0H23.751a5.084,5.084,0,0,1,.928-3.222,2.926,2.926,0,0,1,2.392-1.172,2.613,2.613,0,0,1,2.2,1.122A5.075,5.075,0,0,1,30,30.053Z" transform="translate(0)" fill="#001c2e"/>
</svg>
