<svg xmlns="http://www.w3.org/2000/svg" width="67" height="67" viewBox="0 0 67 67">
  <path id="Subtraction_1" data-name="Subtraction 1" d="M33,66A33.009,33.009,0,0,1,20.155,2.593a33.008,33.008,0,0,1,25.69,60.813A32.792,32.792,0,0,1,33,66ZM47.571,21.992a10.757,10.757,0,0,0-4.277.825,9.067,9.067,0,0,0-3.262,2.362,10.743,10.743,0,0,0-2.074,3.7,15.236,15.236,0,0,0-.727,4.844,15.061,15.061,0,0,0,.689,4.707A10.031,10.031,0,0,0,39.9,41.98a8.719,8.719,0,0,0,3.148,2.248,10.63,10.63,0,0,0,4.171.787c.482,0,1.009-.025,1.566-.076s1.133-.124,1.7-.22,1.143-.212,1.7-.348a16.215,16.215,0,0,0,1.566-.461l.212-5.995H52.915a9.97,9.97,0,0,1-.674,2.892A5.062,5.062,0,0,1,51,42.608a4.248,4.248,0,0,1-1.725.931,8.119,8.119,0,0,1-2.127.265,9.658,9.658,0,0,1-1.817-.167A4.85,4.85,0,0,1,42.4,41.873,6.5,6.5,0,0,1,41.387,40a13.689,13.689,0,0,1-.644-2.7,26.071,26.071,0,0,1-.227-3.67,25.964,25.964,0,0,1,.235-3.716,14.268,14.268,0,0,1,.658-2.763,6.679,6.679,0,0,1,1.037-1.922,5.22,5.22,0,0,1,1.378-1.21,5.3,5.3,0,0,1,1.658-.635,9.487,9.487,0,0,1,1.892-.182,7.959,7.959,0,0,1,1.862.212,3.886,3.886,0,0,1,1.574.787,4.343,4.343,0,0,1,1.157,1.612,8.42,8.42,0,0,1,.6,2.687h1.059l-.182-5.525c-.456-.149-.943-.286-1.445-.409s-1.01-.225-1.514-.31-1.013-.152-1.506-.2S48.016,21.992,47.571,21.992Zm-35.087,21.3V44.5H29.422l.333-7.659H28.7c-.132.94-.282,1.758-.446,2.43a8.673,8.673,0,0,1-.6,1.733,3.88,3.88,0,0,1-.833,1.158,3.475,3.475,0,0,1-1.157.7,6.394,6.394,0,0,1-1.567.34c-.6.06-1.294.091-2.074.091H18.463V23.718H21.49V22.506H12.484v1.211h3.028V43.289Z" transform="translate(0.5 0.5)" fill="#0d0d0d" stroke="#fff" stroke-width="1"/>
</svg>
